<?xml version="1.0" encoding="UTF-8"?>
<svg id="Layer_1" data-name="Layer 1" xmlns="http://www.w3.org/2000/svg" xmlns:xlink="http://www.w3.org/1999/xlink" version="1.1" viewBox="0 0 64 64">
  <defs>
    <style>
      .cls-1 {
        clip-path: url(#clippath);
      }

      .cls-2 {
        fill: none;
      }

      .cls-2, .cls-3, .cls-4, .cls-5, .cls-6 {
        stroke-width: 0px;
      }

      .cls-3 {
        fill: #fbbc05;
      }

      .cls-4 {
        fill: #34a853;
      }

      .cls-7 {
        clip-path: url(#clippath-1);
      }

      .cls-8 {
        clip-path: url(#clippath-3);
      }

      .cls-9 {
        clip-path: url(#clippath-2);
      }

      .cls-5 {
        fill: #4285f4;
      }

      .cls-6 {
        fill: #ea4335;
      }
    </style>
    <clipPath id="clippath">
      <path class="cls-2" d="M62.8,26.2h-29.8v12.4h17.2c-1.6,7.9-8.3,12.4-17.2,12.4s-18.9-8.4-18.9-18.9,8.4-18.9,18.9-18.9,8.6,1.6,11.8,4.2l9.3-9.3C48.4,3.1,41.1,0,33,0,15.3,0,1,14.3,1,32s14.3,32,32,32,30.5-11.6,30.5-32-.3-3.9-.7-5.8Z"/>
    </clipPath>
    <clipPath id="clippath-1">
      <path class="cls-2" d="M62.8,26.2h-29.8v12.4h17.2c-1.6,7.9-8.3,12.4-17.2,12.4s-18.9-8.4-18.9-18.9,8.4-18.9,18.9-18.9,8.6,1.6,11.8,4.2l9.3-9.3C48.4,3.1,41.1,0,33,0,15.3,0,1,14.3,1,32s14.3,32,32,32,30.5-11.6,30.5-32-.3-3.9-.7-5.8Z"/>
    </clipPath>
    <clipPath id="clippath-2">
      <path class="cls-2" d="M62.8,26.2h-29.8v12.4h17.2c-1.6,7.9-8.3,12.4-17.2,12.4s-18.9-8.4-18.9-18.9,8.4-18.9,18.9-18.9,8.6,1.6,11.8,4.2l9.3-9.3C48.4,3.1,41.1,0,33,0,15.3,0,1,14.3,1,32s14.3,32,32,32,30.5-11.6,30.5-32-.3-3.9-.7-5.8Z"/>
    </clipPath>
    <clipPath id="clippath-3">
      <path class="cls-2" d="M62.8,26.2h-29.8v12.4h17.2c-1.6,7.9-8.3,12.4-17.2,12.4s-18.9-8.4-18.9-18.9,8.4-18.9,18.9-18.9,8.6,1.6,11.8,4.2l9.3-9.3C48.4,3.1,41.1,0,33,0,15.3,0,1,14.3,1,32s14.3,32,32,32,30.5-11.6,30.5-32-.3-3.9-.7-5.8Z"/>
    </clipPath>
  </defs>
  <g class="cls-1">
    <path class="cls-3" d="M-1.9,50.9V13.1l24.7,18.9L-1.9,50.9Z"/>
  </g>
  <g class="cls-7">
    <path class="cls-6" d="M-1.9,13.1l24.7,18.9,10.2-8.9,34.9-5.7V-2.9H-1.9V13.1Z"/>
  </g>
  <g class="cls-9">
    <path class="cls-4" d="M-1.9,50.9L41.7,17.5l11.5,1.5,14.7-21.8v69.8H-1.9v-16Z"/>
  </g>
  <g class="cls-8">
    <path class="cls-5" d="M67.9,66.9L22.8,32l-5.8-4.4,50.9-14.5v53.8Z"/>
  </g>
</svg>