<?xml version="1.0" encoding="UTF-8"?>
<svg id="Layer_1" data-name="Layer 1" xmlns="http://www.w3.org/2000/svg" version="1.1" viewBox="0 0 339.4 339.4">
  <defs>
    <style>
      .cls-1 {
        fill: #bd382e;
      }

      .cls-1, .cls-2 {
        stroke-width: 0px;
      }

      .cls-2 {
        fill: #fff;
      }
    </style>
  </defs>
  <rect class="cls-2" y="2" width="337.4" height="337.4"/>
  <path class="cls-1" d="M150.2,157c-2.5.8-7.2,3.9-6.7,9.9v-.2c0,6.4,4.8,9,7.3,9.5h.2s.2,0,.2,0l22.6.6.2-5.8-22.6-.6h.4c-.6,0-2.6-.8-2.6-3.7h0c0-.1,0-.2,0-.2-.2-2.8,2.2-3.8,2.7-3.9l-1.8-5.5"/>
  <path class="cls-1" d="M150.2,170.6c-2.5.8-7.2,3.9-6.7,9.9v-.2c0,6.4,4.8,9,7.3,9.5h.2s.2,0,.2,0l22.6.6.2-5.8-22.6-.6h.4c-.6,0-2.6-.8-2.6-3.7h0c0-.1,0-.2,0-.2-.2-2.9,2.6-3.9,2.7-3.9l-1.8-5.5"/>
  <path class="cls-1" d="M174,157.3l-22.6-.6h.4c-.6,0-2.6-.8-2.6-3.7h0c0-.1,0-.2,0-.2-.2-2.8,2.2-3.8,2.7-3.9h-.9c9.4.2,27.8.4,30.7.6,1.1,0,1.3,2.7,1.3,2.8,0,0,.6,18.4.6,18.4v.5s.2.4.2.4c3.8,10.4,11.8,10.9,15.6,9.7l2-.6v-38.7h-5.8v36.6l2-2.8c-.9.3-5.8,1.2-8.4-6.2l.2.9-.6-18.3c-.1-3.8-2.2-8-6.6-8.3-3.9-.3-30.1-.5-31.2-.5h-.5s-.4.1-.4.1c-2.5.8-7.2,3.9-6.7,9.9v-.2c0,6.4,4.8,9,7.3,9.5h.2s.2,0,.2,0l22.6.6.2-5.8"/>
  <path class="cls-1" d="M139.1,138.2h-9.2c-17.9,0-32.5,14.6-32.5,32.5s14.6,32.5,32.5,32.5h9.2l-2.8-2.8v9.2c0,8.7,3.4,16.8,9.5,23,6.1,6.1,14.3,9.5,23,9.5,17.9,0,32.5-14.6,32.5-32.5h-5.6c0,14.8-12.1,26.9-26.9,26.9s-13.9-2.8-19-7.9c-5.1-5.1-7.9-11.8-7.9-19v-12h-12c-14.8,0-26.9-12.1-26.9-26.9s12.1-26.9,26.9-26.9h9.2v-5.6"/>
  <path class="cls-1" d="M143.5,194s0,0,0,0c0,0,0-.1,0-.2v.2M240.1,170.8c0-17.9-14.6-32.5-32.5-32.5h-6.4v-6.4c0-17.9-14.6-32.5-32.5-32.5s-32.5,14.6-32.5,32.5h5.6c0-14.8,12.1-26.9,26.9-26.9s26.9,12.1,26.9,26.9v12h12c14.8,0,26.9,12.1,26.9,26.9s-12.1,26.9-26.9,26.9l-8.9-.2h-47c-.7-.2-2.5-1-2.5-3.7h0c0-.1,0-.2,0-.2-.2-2.9,2.6-3.9,2.7-3.9l-1.8-5.5c-2.5.8-7.1,3.9-6.7,9.8,0,6.3,4.8,8.8,7.4,9.3h.3s56.5,0,56.5,0c17.9,0,32.5-14.6,32.5-32.5Z"/>
</svg>