<svg width="25" height="24" viewBox="0 0 25 24" fill="none" xmlns="http://www.w3.org/2000/svg">
<g id="Message circle">
<path id="Icon" d="M21.3334 11.5C21.3368 12.8199 21.0284 14.1219 20.4334 15.3C19.7278 16.7117 18.6431 17.8992 17.3008 18.7293C15.9585 19.5594 14.4116 19.9994 12.8334 20C11.5135 20.0034 10.2115 19.6951 9.03336 19.1L3.33336 21L5.23336 15.3C4.63829 14.1219 4.32992 12.8199 4.33336 11.5C4.33397 9.92176 4.77397 8.37485 5.60408 7.03255C6.43419 5.69025 7.62161 4.60557 9.03336 3.9C10.2115 3.30493 11.5135 2.99656 12.8334 3H13.3334C15.4177 3.11499 17.3864 3.99476 18.8625 5.47086C20.3386 6.94695 21.2184 8.91565 21.3334 11V11.5Z" stroke="#757575" stroke-width="2.5" stroke-linecap="round" stroke-linejoin="round"/>
</g>
</svg>
